<svg width="15" height="14" viewBox="0 0 15 14" fill="none" xmlns="http://www.w3.org/2000/svg">
<path d="M6.25446 1.0625C5.94196 1.375 5.97321 1.84375 6.25446 2.15625L10.0357 5.75L1.03571 5.75C0.629456 5.75 0.285706 6.0625 0.285706 6.5V7.5C0.285706 7.90625 0.629456 8.25 1.03571 8.25L10.0357 8.25L6.25446 11.8125C5.97321 12.125 5.94196 12.5938 6.25446 12.9062L6.94196 13.5938C7.22321 13.875 7.72321 13.875 8.00446 13.5938L14.067 7.5C14.3795 7.21875 14.3795 6.75 14.067 6.46875L8.00446 0.375C7.72321 0.09375 7.25446 0.09375 6.94196 0.375L6.25446 1.0625Z" fill="#5A7184"/>
</svg>
