<svg width="40" height="40" viewBox="0 0 40 40" fill="none" xmlns="http://www.w3.org/2000/svg">
<rect opacity="0.1" width="40" height="40" rx="20" fill="#5A7184"/>
<path d="M20.3333 16.7395C18.3333 16.7395 16.7395 18.3645 16.7395 20.3333C16.7395 22.3333 18.3333 23.927 20.3333 23.927C22.302 23.927 23.927 22.3333 23.927 20.3333C23.927 18.3645 22.302 16.7395 20.3333 16.7395ZM20.3333 22.677C19.052 22.677 17.9895 21.6458 17.9895 20.3333C17.9895 19.052 19.0208 18.0208 20.3333 18.0208C21.6145 18.0208 22.6458 19.052 22.6458 20.3333C22.6458 21.6458 21.6145 22.677 20.3333 22.677ZM24.8958 16.6145C24.8958 16.1458 24.5208 15.7708 24.052 15.7708C23.5833 15.7708 23.2083 16.1458 23.2083 16.6145C23.2083 17.0833 23.5833 17.4583 24.052 17.4583C24.5208 17.4583 24.8958 17.0833 24.8958 16.6145ZM27.2708 17.4583C27.2083 16.3333 26.9583 15.3333 26.1458 14.5208C25.3333 13.7083 24.3333 13.4583 23.2083 13.3958C22.052 13.3333 18.5833 13.3333 17.427 13.3958C16.302 13.4583 15.3333 13.7083 14.4895 14.5208C13.677 15.3333 13.427 16.3333 13.3645 17.4583C13.302 18.6145 13.302 22.0833 13.3645 23.2395C13.427 24.3645 13.677 25.3333 14.4895 26.177C15.3333 26.9895 16.302 27.2395 17.427 27.302C18.5833 27.3645 22.052 27.3645 23.2083 27.302C24.3333 27.2395 25.3333 26.9895 26.1458 26.177C26.9583 25.3333 27.2083 24.3645 27.2708 23.2395C27.3333 22.0833 27.3333 18.6145 27.2708 17.4583ZM25.7708 24.4583C25.552 25.0833 25.052 25.552 24.4583 25.802C23.5208 26.177 21.3333 26.0833 20.3333 26.0833C19.302 26.0833 17.1145 26.177 16.2083 25.802C15.5833 25.552 15.1145 25.0833 14.8645 24.4583C14.4895 23.552 14.5833 21.3645 14.5833 20.3333C14.5833 19.3333 14.4895 17.1458 14.8645 16.2083C15.1145 15.6145 15.5833 15.1458 16.2083 14.8958C17.1145 14.5208 19.302 14.6145 20.3333 14.6145C21.3333 14.6145 23.5208 14.5208 24.4583 14.8958C25.052 15.1145 25.5208 15.6145 25.7708 16.2083C26.1458 17.1458 26.052 19.3333 26.052 20.3333C26.052 21.3645 26.1458 23.552 25.7708 24.4583Z" fill="#5A7184"/>
</svg>
