<svg display="none" xmlns="http://www.w3.org/2000/svg">
										<symbol id="heart" viewBox="0 0 511.626 511.627">
											<g>
												<path
													d="M475.366 71.951c-24.175-23.606-57.575-35.404-100.215-35.404-11.8 0-23.843 2.046-36.117 6.136-12.279 4.093-23.702 9.615-34.256 16.562-10.568 6.945-19.65 13.467-27.269 19.556a263.828 263.828 0 0 0-21.696 19.414 264.184 264.184 0 0 0-21.698-19.414c-7.616-6.089-16.702-12.607-27.268-19.556-10.564-6.95-21.985-12.468-34.261-16.562-12.275-4.089-24.316-6.136-36.116-6.136-42.637 0-76.039 11.801-100.211 35.404C12.087 95.552 0 128.288 0 170.162c0 12.753 2.24 25.889 6.711 39.398 4.471 13.514 9.566 25.031 15.275 34.546 5.708 9.514 12.181 18.796 19.414 27.837 7.233 9.042 12.519 15.27 15.846 18.699 3.33 3.422 5.948 5.899 7.851 7.419L243.25 469.937c3.427 3.429 7.614 5.144 12.562 5.144s9.138-1.715 12.563-5.137l177.87-171.307c43.588-43.583 65.38-86.41 65.38-128.475.001-41.874-12.088-74.61-36.259-98.211z"
												/>
											</g>
											</symbol>
</svg>

<svg display="none" xmlns="http://www.w3.org/2000/svg">
										<symbol id="arrow" viewBox="0 0 14 14">
											<g>
												<path d="M5.9375 1.09375C5.625 1.40625 5.65625 1.875 5.9375 2.1875L9.71875 5.75H0.75C0.3125 5.75 0 6.09375 0 6.5V7.5C0 7.9375 0.3125 8.25 0.75 8.25H9.71875L5.9375 11.8438C5.65625 12.1562 5.65625 12.625 5.9375 12.9375L6.625 13.625C6.9375 13.9062 7.40625 13.9062 7.6875 13.625L13.7812 7.53125C14.0625 7.25 14.0625 6.78125 13.7812 6.46875L7.6875 0.40625C7.40625 0.125 6.9375 0.125 6.625 0.40625L5.9375 1.09375Z"/>
											</g>
										</symbol>
</svg>

<svg display="none" xmlns="http://www.w3.org/2000/svg">
										<symbol id="bookmark" viewBox="-58 0 404 404.54235">
											<g>
												<path d="m277.527344 0h-267.257813c-5.519531 0-10 4.476562-10 10v374.527344c-.007812 7.503906 4.183594 14.378906 10.855469 17.808594 6.675781 3.425781 14.707031 2.828124 20.796875-1.550782l111.976563-80.269531 111.980468 80.265625c6.09375 4.371094 14.117188 4.964844 20.789063 1.539062 6.667969-3.425781 10.863281-10.296874 10.863281-17.792968v-374.527344c0-5.523438-4.480469-10-10.003906-10zm-10 384.523438-117.796875-84.441407c-3.484375-2.496093-8.171875-2.496093-11.652344 0l-117.800781 84.445313v-364.527344h247.25zm0 0"/>
											</g>
										</symbol>
</svg>
