<svg display="none" xmlns="http://www.w3.org/2000/svg">
										<symbol id="heart" viewBox="0 0 511.626 511.627">
											<g>
												<path
													d="M475.366 71.951c-24.175-23.606-57.575-35.404-100.215-35.404-11.8 0-23.843 2.046-36.117 6.136-12.279 4.093-23.702 9.615-34.256 16.562-10.568 6.945-19.65 13.467-27.269 19.556a263.828 263.828 0 0 0-21.696 19.414 264.184 264.184 0 0 0-21.698-19.414c-7.616-6.089-16.702-12.607-27.268-19.556-10.564-6.95-21.985-12.468-34.261-16.562-12.275-4.089-24.316-6.136-36.116-6.136-42.637 0-76.039 11.801-100.211 35.404C12.087 95.552 0 128.288 0 170.162c0 12.753 2.24 25.889 6.711 39.398 4.471 13.514 9.566 25.031 15.275 34.546 5.708 9.514 12.181 18.796 19.414 27.837 7.233 9.042 12.519 15.27 15.846 18.699 3.33 3.422 5.948 5.899 7.851 7.419L243.25 469.937c3.427 3.429 7.614 5.144 12.562 5.144s9.138-1.715 12.563-5.137l177.87-171.307c43.588-43.583 65.38-86.41 65.38-128.475.001-41.874-12.088-74.61-36.259-98.211z"
												/>
											</g>
											</symbol>

                    <symbol id="bookmark" viewBox="0 0 512 512">
                      <g>
                        <path d="M391.416 0H120.584c-17.778 0-32.242 14.464-32.242 32.242v460.413A19.345 19.345 0 0 0 107.687 512a19.34 19.34 0 0 0 10.169-2.882l138.182-85.312 138.163 84.693a19.307 19.307 0 0 0 19.564.387 19.338 19.338 0 0 0 9.892-16.875V32.242C423.657 14.464 409.194 0 391.416 0zm-6.449 457.453-118.85-72.86a19.361 19.361 0 0 0-20.28.032l-118.805 73.35V38.69h257.935v418.763z"/>
                      </g>
                    </symbol>
										<symbol id="envelop" viewBox="0 0 511.626 511.626" >
											<g>
												<path d="M49.106 178.729c6.472 4.567 25.981 18.131 58.528 40.685 32.548 22.554 57.482 39.92 74.803 52.099 1.903 1.335 5.946 4.237 12.131 8.71 6.186 4.476 11.326 8.093 15.416 10.852 4.093 2.758 9.041 5.852 14.849 9.277 5.806 3.422 11.279 5.996 16.418 7.7 5.14 1.718 9.898 2.569 14.275 2.569h.575c4.377 0 9.137-.852 14.277-2.569 5.137-1.704 10.615-4.281 16.416-7.7 5.804-3.429 10.752-6.52 14.845-9.277 4.093-2.759 9.229-6.376 15.417-10.852 6.184-4.477 10.232-7.375 12.135-8.71 17.508-12.179 62.051-43.11 133.615-92.79 13.894-9.703 25.502-21.411 34.827-35.116 9.332-13.699 13.993-28.07 13.993-43.105 0-12.564-4.523-23.319-13.565-32.264-9.041-8.947-19.749-13.418-32.117-13.418H45.679c-14.655 0-25.933 4.948-33.832 14.844C3.949 79.562 0 91.934 0 106.779c0 11.991 5.236 24.985 15.703 38.974 10.466 13.99 21.604 24.983 33.403 32.976z"/><path d="M483.072 209.275c-62.424 42.251-109.824 75.087-142.177 98.501-10.849 7.991-19.65 14.229-26.409 18.699-6.759 4.473-15.748 9.041-26.98 13.702-11.228 4.668-21.692 6.995-31.401 6.995h-.578c-9.707 0-20.177-2.327-31.405-6.995-11.228-4.661-20.223-9.229-26.98-13.702-6.755-4.47-15.559-10.708-26.407-18.699-25.697-18.842-72.995-51.68-141.896-98.501C17.987 202.047 8.375 193.762 0 184.437v226.685c0 12.57 4.471 23.319 13.418 32.265 8.945 8.949 19.701 13.422 32.264 13.422h420.266c12.56 0 23.315-4.473 32.261-13.422 8.949-8.949 13.418-19.694 13.418-32.265V184.437c-8.186 9.132-17.7 17.417-28.555 24.838z"/>
											</g>
										</symbol>
										<symbol id="cross" viewBox="0 0 348.333 348.334" >
											g>
												<path d="M336.559,68.611L231.016,174.165l105.543,105.549c15.699,15.705,15.699,41.145,0,56.85
													c-7.844,7.844-18.128,11.769-28.407,11.769c-10.296,0-20.581-3.919-28.419-11.769L174.167,231.003L68.609,336.563
													c-7.843,7.844-18.128,11.769-28.416,11.769c-10.285,0-20.563-3.919-28.413-11.769c-15.699-15.698-15.699-41.139,0-56.85
													l105.54-105.549L11.774,68.611c-15.699-15.699-15.699-41.145,0-56.844c15.696-15.687,41.127-15.687,56.829,0l105.563,105.554
													L279.721,11.767c15.705-15.687,41.139-15.687,56.832,0C352.258,27.466,352.258,52.912,336.559,68.611z"/>
</g>
										</symbol>
										<symbol id="arrow">
											<g>
												<path d="M25.2232 23.0938C24.9107 23.4062 24.942 23.875 25.2232 24.1875L29.0045 27.75H20.0357C19.5982 27.75 19.2857 28.0938 19.2857 28.5V29.5C19.2857 29.9375 19.5982 30.25 20.0357 30.25H29.0045L25.2232 33.8438C24.942 34.1562 24.942 34.625 25.2232 34.9375L25.9107 35.625C26.2232 35.9062 26.692 35.9062 26.9732 35.625L33.067 29.5312C33.3482 29.25 33.3482 28.7812 33.067 28.4688L26.9732 22.4062C26.692 22.125 26.2232 22.125 25.9107 22.4062L25.2232 23.0938Z"/>
											</g>
										</symbol>
										<!-- <symbol id="arrow" viewBox="0 0 14 14">
											<g>
												<path d="M5.9375 1.09375C5.625 1.40625 5.65625 1.875 5.9375 2.1875L9.71875 5.75H0.75C0.3125 5.75 0 6.09375 0 6.5V7.5C0 7.9375 0.3125 8.25 0.75 8.25H9.71875L5.9375 11.8438C5.65625 12.1562 5.65625 12.625 5.9375 12.9375L6.625 13.625C6.9375 13.9062 7.40625 13.9062 7.6875 13.625L13.7812 7.53125C14.0625 7.25 14.0625 6.78125 13.7812 6.46875L7.6875 0.40625C7.40625 0.125 6.9375 0.125 6.625 0.40625L5.9375 1.09375Z"/>
											</g>
										</symbol> -->
</svg>
