<svg width="42" height="40" viewBox="0 0 42 40" fill="none" xmlns="http://www.w3.org/2000/svg">
<rect opacity="0.1" width="42" height="40" rx="20" fill="#5A7184"/>
<path d="M27.677 17.0833C28.302 16.6145 28.8645 16.052 29.302 15.3958C28.7395 15.6458 28.0833 15.8333 27.427 15.8958C28.1145 15.4895 28.6145 14.8645 28.8645 14.0833C28.2395 14.4583 27.5208 14.7395 26.802 14.8958C26.177 14.2395 25.3333 13.8645 24.3958 13.8645C22.5833 13.8645 21.1145 15.3333 21.1145 17.1458C21.1145 17.3958 21.1458 17.6458 21.2083 17.8958C18.4895 17.7395 16.052 16.427 14.427 14.4583C14.1458 14.927 13.9895 15.4895 13.9895 16.1145C13.9895 17.2395 14.552 18.2395 15.4583 18.8333C14.927 18.802 14.3958 18.677 13.9583 18.427V18.4583C13.9583 20.052 15.0833 21.3645 16.5833 21.677C16.3333 21.7395 16.0208 21.802 15.7395 21.802C15.5208 21.802 15.3333 21.7708 15.1145 21.7395C15.5208 23.052 16.7395 23.9895 18.177 24.0208C17.052 24.8958 15.6458 25.427 14.1145 25.427C13.8333 25.427 13.5833 25.3958 13.3333 25.3645C14.7708 26.302 16.4895 26.8333 18.3645 26.8333C24.3958 26.8333 27.677 21.8645 27.677 17.5208C27.677 17.3645 27.677 17.2395 27.677 17.0833Z" fill="#5A7184"/>
</svg>
